<svg xmlns="http://www.w3.org/2000/svg" width="399.999" height="216.23" viewBox="0 0 399.999 216.23">
  <g id="header-logo" transform="translate(-42.748 -94.215)">
    <rect id="Rectangle_2474" data-name="Rectangle 2474" width="398.476" height="43.875" transform="translate(43.503 266.57)" fill="#ffb711"/>
    <g id="Group_12066" data-name="Group 12066" transform="translate(86.986 279.805)">
      <path id="Path_29512" data-name="Path 29512" d="M92.167,232.783a2.435,2.435,0,0,0-.9.308.829.829,0,0,0-.18.632v4.3q-.979.361-1.482.527a19.805,19.805,0,0,1-6.351,1.057,12.645,12.645,0,0,1-4.393-.741,9.024,9.024,0,0,1-3.376-2.133,9.139,9.139,0,0,1-2.551-6.712,8.515,8.515,0,0,1,5-8.066,14.175,14.175,0,0,1,5.914-1.142,19.875,19.875,0,0,1,3.525.282,19.237,19.237,0,0,1,3.368.966l.163.282a38.854,38.854,0,0,0-.605,4.046H89.265l-.14-2.268a5.023,5.023,0,0,0-1.534-1.069,9.7,9.7,0,0,0-3.879-.761,6.554,6.554,0,0,0-4.845,1.779,7.67,7.67,0,0,0-1.983,5.645,10.817,10.817,0,0,0,.618,3.7,7.615,7.615,0,0,0,1.746,2.846,6.386,6.386,0,0,0,4.733,1.869,9.825,9.825,0,0,0,3.35-.653v-3.484a.793.793,0,0,0-.336-.73,2.554,2.554,0,0,0-1.172-.251l-1.392-.051v-1.084q2.835.077,3.776.078t3.956-.078Z" transform="translate(-72.925 -220.813)" fill="#900f29"/>
      <path id="Path_29513" data-name="Path 29513" d="M100.69,233.646H94.067L92.958,236.6a1.99,1.99,0,0,0-.116.653.868.868,0,0,0,.212.592.73.73,0,0,0,.548.258l1.306.078v.979l-1.506-.039q-1.071-.038-1.469-.038l-2.99.078v-.979l.785-.078q.862-.077,1.482-1.585l4.78-11.557,1.508-3.982h1.867l6.828,15.965a1.775,1.775,0,0,0,1.456,1.16l.632.078v.979q-3.453-.077-4.161-.078-.785,0-4.019.078v-.979l1.405-.078a.49.49,0,0,0,.367-.219.816.816,0,0,0,.148-.49,1.923,1.923,0,0,0-.163-.734Zm-3.352-8.182-2.629,6.7h5.374Z" transform="translate(-65.462 -220.736)" fill="#900f29"/>
      <path id="Path_29514" data-name="Path 29514" d="M105.384,238.063l.979-.078a1.671,1.671,0,0,0,1.018-.282,5.161,5.161,0,0,0,.245-2.228V224.712a6.839,6.839,0,0,0-.188-2.144c-.124-.253-.49-.4-1.075-.446l-.979-.078v-.979q3.956.078,4.679.078,1.532,0,3.453-.051,1.341-.026,1.816-.026,5.013,0,5.012,3.879a4.22,4.22,0,0,1-1.119,2.911,5.562,5.562,0,0,1-1.115.955,11.7,11.7,0,0,1-1.694.837l4.78,7.229a2.683,2.683,0,0,0,.733.8,3.374,3.374,0,0,0,1.108.387v1.057q-1.133-.052-2.564-.078l-2.371.078-5.9-9.161.18-.477c.18.008.326.011.463.011a3.764,3.764,0,0,0,2.371-.734,3.579,3.579,0,0,0,1.379-3,3.164,3.164,0,0,0-1.237-2.719,4.123,4.123,0,0,0-2.472-.653,3.833,3.833,0,0,0-1.534.245v12.846a7.053,7.053,0,0,0,.163,2.105q.163.326,1.1.406l.979.078v1.057q-2.9-.077-4.111-.078t-4.1.078Z" transform="translate(-57.803 -220.696)" fill="#900f29"/>
      <path id="Path_29515" data-name="Path 29515" d="M126.955,222.679V229.1q.669.051,1.766.051h1.34a3.821,3.821,0,0,0,1.16-.116.5.5,0,0,0,.348-.439l.163-1.392h1.056q-.09,2.423-.077,2.706l.077,2.861h-1.056l-.163-1.327a.979.979,0,0,0-.411-.754,2.056,2.056,0,0,0-1.1-.225h-1.34q-.787,0-1.766.077v4.948a7.16,7.16,0,0,0,.163,2.121q.163.326,1.095.385l1.237.078v1.057q-3.2-.077-4.369-.078-1.211,0-4.1.078v-1.057l.979-.078a1.671,1.671,0,0,0,1.018-.282,5.113,5.113,0,0,0,.245-2.216v-10.77a6.772,6.772,0,0,0-.188-2.139c-.124-.25-.49-.4-1.075-.452l-.979-.078v-.979q3.917.078,4.6.078.747,0,2.5-.038,2.784-.052,3.711-.051,1.315,0,2.513.09l.163.18L134.1,225.1h-.942l-.219-1.984q-.052-.5-3-.5Q128.772,222.6,126.955,222.679Z" transform="translate(-50.53 -220.695)" fill="#900f29"/>
      <path id="Path_29516" data-name="Path 29516" d="M142.291,222.126l-.979.078a1.705,1.705,0,0,0-1.031.282,5.458,5.458,0,0,0-.233,2.229v10.759a6.977,6.977,0,0,0,.163,2.105q.163.326,1.1.406l.979.078v1.057q-2.9-.077-4.111-.078t-4.1.078v-1.057l.979-.078a1.666,1.666,0,0,0,1.017-.282,5.134,5.134,0,0,0,.245-2.228V224.712a7.078,7.078,0,0,0-.163-2.1q-.163-.326-1.1-.411l-.979-.078v-1.057q3.182.078,4.1.078t4.111-.078Z" transform="translate(-44.431 -220.696)" fill="#900f29"/>
      <path id="Path_29517" data-name="Path 29517" d="M149.93,222.682v6.338q.671.052,1.766.051h1.74a3.823,3.823,0,0,0,1.16-.116.5.5,0,0,0,.348-.439l.163-1.506h1.056q-.012.631-.024.955c-.036.866-.051,1.4-.051,1.585v.282l.077,2.848h-1.056l-.163-1.306a.979.979,0,0,0-.411-.754,2.07,2.07,0,0,0-1.1-.225h-1.746q-.785,0-1.766.078v7.047q1.932.1,3.466.1a9.078,9.078,0,0,0,3.053-.4.121.121,0,0,0,.078-.065l.605-2.487h1.031l-.3,4.174-.129.206q-1.842.116-3.711.116-1.958,0-4.251-.078-1.07-.037-1.689-.037-.888,0-3.247.078v-.605l.839-.477q.527-.3.527-1.508V224.717a6.79,6.79,0,0,0-.186-2.139q-.188-.374-1.075-.452l-.979-.078v-.979q3.53.078,4.972.078,1.211,0,3.427-.051,1.9-.039,2.848-.038,1.306,0,2.5.09l.153.18-.361,3.763h-.953l-.207-1.984q-.026-.207-.767-.352a9.23,9.23,0,0,0-1.8-.15Q151.734,222.605,149.93,222.682Z" transform="translate(-39.823 -220.698)" fill="#900f29"/>
      <path id="Path_29518" data-name="Path 29518" d="M166.045,222.126l-.979.078a1.711,1.711,0,0,0-1.031.282,5.5,5.5,0,0,0-.232,2.229V237.51q1.868.1,3.466.1a8.879,8.879,0,0,0,3.053-.4c.044-.018.069-.037.078-.065l.605-2.693h1.031l-.3,4.382-.129.206q-1.842.116-3.711.116-1.958,0-4.251-.078-1.07-.037-1.689-.038-.888,0-3.247.078v-.605l.839-.476q.527-.3.527-1.495V224.712a7.08,7.08,0,0,0-.163-2.1q-.163-.326-1.1-.411l-.979-.078v-1.057q3.182.078,4.1.078t4.109-.078Z" transform="translate(-33.354 -220.696)" fill="#900f29"/>
      <path id="Path_29519" data-name="Path 29519" d="M171.62,238.515l.839-.477q.527-.3.527-1.508V224.712a6.836,6.836,0,0,0-.188-2.144c-.122-.253-.49-.4-1.074-.446l-.979-.078v-.979q3.93.078,4.251.078l2.758-.038,3.582-.039a16.806,16.806,0,0,1,3.376.292,8.864,8.864,0,0,1,2.526.907,5.86,5.86,0,0,1,2.255,2.228,10.319,10.319,0,0,1-1.663,11.57A9.814,9.814,0,0,1,185,238.009a12.1,12.1,0,0,1-5.167,1.108q-.529,0-1.572-.039-1.366-.038-2.526-.038-1.018,0-4.111.078Zm5.09-16.029v15.049a11.414,11.414,0,0,0,1.8.14,13.178,13.178,0,0,0,3.716-.442,5.769,5.769,0,0,0,2.448-1.425,8.107,8.107,0,0,0,1.932-5.952,7.589,7.589,0,0,0-1.74-5.566q-1.906-1.9-6.519-1.895a15.068,15.068,0,0,0-1.632.09Z" transform="translate(-27.343 -220.696)" fill="#900f29"/>
      <path id="Path_29520" data-name="Path 29520" d="M213.255,236.867l-.579,1.289a11.717,11.717,0,0,1-1.855.85,12.968,12.968,0,0,1-4.08.605,12.728,12.728,0,0,1-5.746-1.211,8.573,8.573,0,0,1-2.861-2.294,9.334,9.334,0,0,1-1.971-6.094,8.5,8.5,0,0,1,2.4-6.222,8.682,8.682,0,0,1,2.6-1.829A13.927,13.927,0,0,1,207,220.818a15.922,15.922,0,0,1,3.053.263,18.473,18.473,0,0,1,3.132.979l.153.282a40.791,40.791,0,0,0-.605,4.045H211.7l-.129-2.268a6.511,6.511,0,0,0-1.714-1.235,7.153,7.153,0,0,0-2.977-.594,6.257,6.257,0,0,0-5.4,2.513,7.988,7.988,0,0,0-1.366,4.832,8.622,8.622,0,0,0,1.779,5.63,7.21,7.21,0,0,0,5.916,2.629,10.934,10.934,0,0,0,5.141-1.353Z" transform="translate(-15.501 -220.811)" fill="#900f29"/>
      <path id="Path_29521" data-name="Path 29521" d="M221.974,233.646h-6.622l-1.108,2.951a1.991,1.991,0,0,0-.116.653.868.868,0,0,0,.211.592.733.733,0,0,0,.548.258l1.315.078v.979l-1.508-.039q-1.069-.038-1.469-.038l-2.99.078v-.979l.786-.078q.865-.077,1.482-1.585l4.78-11.557,1.506-3.982h1.869l6.828,15.965a1.775,1.775,0,0,0,1.456,1.16l.632.078v.979q-3.455-.077-4.161-.078-.787,0-4.019.078v-.979l1.405-.078a.49.49,0,0,0,.367-.219.816.816,0,0,0,.148-.49,1.921,1.921,0,0,0-.153-.734Zm-3.35-8.182-2.629,6.7h5.372Z" transform="translate(-8.941 -220.736)" fill="#900f29"/>
      <path id="Path_29522" data-name="Path 29522" d="M251.062,222.048l-.979.078a1.57,1.57,0,0,0-1.005.326,5.238,5.238,0,0,0-.256,2.268V235.48a7.052,7.052,0,0,0,.163,2.105q.163.326,1.1.406l.979.078v1.057q-2.951-.077-4.111-.078t-4.1.078V238.07l.979-.078a1.671,1.671,0,0,0,1.018-.282,5.159,5.159,0,0,0,.245-2.228V224.5l-5.438,11.325q-1.031,2.139-1.586,3.479h-.878q-.7-1.65-.953-2.19l-6.069-12.639v11a7.089,7.089,0,0,0,.181,2.144q.179.38,1.082.444l.979.078v.979q-2.228-.077-2.977-.078t-3.066.078v-.979l.979-.078a1.5,1.5,0,0,0,.992-.326,4.991,4.991,0,0,0,.271-2.267V224.713a6.853,6.853,0,0,0-.186-2.144c-.124-.253-.49-.4-1.077-.446l-.979-.078v-.979l1.34.039q1.315.038,1.508.038h.326l3.169-.078q1.495,3.248,1.971,4.253l4.174,8.71,4.819-9.984q.361-.71,1.306-2.977,2.745.078,3.027.078t3.066-.078Z" transform="translate(-1.423 -220.696)" fill="#900f29"/>
      <path id="Path_29523" data-name="Path 29523" d="M247.363,238.063l.979-.078a1.673,1.673,0,0,0,1.018-.282,5.162,5.162,0,0,0,.245-2.228V224.712a6.853,6.853,0,0,0-.186-2.144c-.124-.253-.49-.4-1.077-.446l-.979-.078v-.979q4.019.078,4.485.078l1.895-.013q3.014-.064,3.3-.065,4.961,0,4.961,3.957a5.57,5.57,0,0,1-.573,2.518,5.1,5.1,0,0,1-1.617,1.9,6.308,6.308,0,0,1-3.776,1.186,6.475,6.475,0,0,1-1.1-.116,3.313,3.313,0,0,0-.4-.078l-.452-.929.271-.258.785.142a1.7,1.7,0,0,0,.348.026,2.4,2.4,0,0,0,2.05-1.057,4.026,4.026,0,0,0,.653-2.422q0-3.558-3.311-3.556a3.916,3.916,0,0,0-1.559.245V235.47a7.141,7.141,0,0,0,.163,2.112q.163.326,1.1.4l1.237.078v1.057q-3.2-.077-4.356-.078-1.226,0-4.111.078Z" transform="translate(8.356 -220.696)" fill="#900f29"/>
      <path id="Path_29524" data-name="Path 29524" d="M279.833,222.047l-.979.078a1.5,1.5,0,0,0-.992.326,4.992,4.992,0,0,0-.271,2.268v7.706a7.094,7.094,0,0,1-1.766,5.23,7.772,7.772,0,0,1-5.72,1.842,12.11,12.11,0,0,1-3.254-.419,6.691,6.691,0,0,1-2.428-1.165,4.348,4.348,0,0,1-1.714-3.543v-9.659a6.835,6.835,0,0,0-.188-2.144c-.124-.253-.49-.4-1.074-.446l-.979-.078v-.979q3.182.078,4.1.078t4.109-.078v.979l-.979.078a1.565,1.565,0,0,0-1,.326,5.221,5.221,0,0,0-.258,2.268v6.546a17.318,17.318,0,0,0,.207,3.086,3.864,3.864,0,0,0,.708,1.694,4.569,4.569,0,0,0,3.724,1.289A5.07,5.07,0,0,0,274.8,236.2a3.8,3.8,0,0,0,.876-1.547,12.943,12.943,0,0,0,.361-3.582v-6.358a7.086,7.086,0,0,0-.181-2.144c-.121-.253-.481-.4-1.082-.446l-.979-.078v-.979q2.774.09,3.027.078l3.016-.078Z" transform="translate(14.467 -220.696)" fill="#900f29"/>
      <path id="Path_29525" data-name="Path 29525" d="M276.681,233.826h1.056l.181,2.319a3.571,3.571,0,0,0,.669.76,5.653,5.653,0,0,0,3.647,1.276,4.068,4.068,0,0,0,3.132-1.248,3.08,3.08,0,0,0,.837-2.165,2.578,2.578,0,0,0-2.19-2.526l-3.7-1.106a6.281,6.281,0,0,1-2.371-1.263,4.271,4.271,0,0,1-1.482-3.388,5.069,5.069,0,0,1,2.121-4.382,4.344,4.344,0,0,1,1.031-.579,9.839,9.839,0,0,1,3.84-.708,14.16,14.16,0,0,1,4.9.9l.129.326a15.7,15.7,0,0,0-.374,3.753h-1.082l-.163-2.164a4.948,4.948,0,0,0-3.582-1.457,3.538,3.538,0,0,0-2.784,1.071,2.938,2.938,0,0,0-.759,2.024,2.164,2.164,0,0,0,.8,1.766,5.335,5.335,0,0,0,2,.9l3.016.786a4.586,4.586,0,0,1,3.98,4.651,5.548,5.548,0,0,1-2.371,4.767,5.973,5.973,0,0,1-1.211.684,10.548,10.548,0,0,1-4.161.8,13.369,13.369,0,0,1-5.5-1.211A26.846,26.846,0,0,0,276.681,233.826Z" transform="translate(21.836 -220.812)" fill="#900f29"/>
    </g>
    <g id="Group_12067" data-name="Group 12067" transform="translate(42.749 94.215)">
      <path id="Path_29526" data-name="Path 29526" d="M43.539,140.63l.225,11.3a354.221,354.221,0,0,1,134.8-56.014C98.748,107.933,43.542,140.63,43.542,140.63" transform="translate(-42.38 -93.422)" fill="#ffb711"/>
      <path id="Path_29527" data-name="Path 29527" d="M240.554,140.252s8.976-15.583,25.947-15.583c21.4,0,28.478,15.973,28.478,15.973H277.812s-3.837-9.849-14.544-9.849-18.191,9.465-18.191,9.465Z" transform="translate(49.424 -80.023)" fill="#900f28"/>
      <path id="Path_29528" data-name="Path 29528" d="M153.572,144.959s18.739-31.233,54.191-31.233c44.693,0,59.485,32.016,59.485,32.016H231.394s-8.011-19.736-30.375-19.736-38,18.953-38,18.953Z" transform="translate(8.892 -85.124)" fill="#900f28"/>
      <path id="Path_29529" data-name="Path 29529" d="M93.56,141.577s11.508-19.989,33.275-19.989c27.445,0,36.533,20.489,36.533,20.489H141.349s-4.919-12.629-18.653-12.629-23.336,12.13-23.336,12.13Z" transform="translate(-19.072 -81.459)" fill="#900f28"/>
      <path id="Path_29530" data-name="Path 29530" d="M46.21,154.269s74.6-60.054,200.71-60.054C352.225,94.215,435.3,154.3,435.3,154.3h-2.526S351.285,101.534,248.6,101.534,84.07,154.269,84.07,154.269Z" transform="translate(-41.136 -94.215)" fill="#900f28"/>
      <path id="Path_29531" data-name="Path 29531" d="M68.6,175.106v-2.578q4.422.183,7.98.183,4.243,0,9.465-.062v1.9l-.49.184q-1.658.615-1.722.676a.63.63,0,0,0-.367.552,34.656,34.656,0,0,0-.122,3.993q0,1.9.243,6.754a45.381,45.381,0,0,1-17.439,3.807q-10.624,0-17.008-5.956a22.7,22.7,0,0,1-.184-31.378q6.448-6.08,18.729-6.077a44.831,44.831,0,0,1,15.666,2.885,42.431,42.431,0,0,0-1.469,9.888H79.465q-.122-3.5-.245-4.331a2.27,2.27,0,0,0-.614-1.319q-3.753-3.753-10.87-3.753a14.766,14.766,0,0,0-11.513,4.636,18.163,18.163,0,0,0-4.2,12.68A21.327,21.327,0,0,0,56.347,181.7a13.979,13.979,0,0,0,11.391,5.314,12.871,12.871,0,0,0,6.816-1.469c.284-.163.429-1.084.429-2.763q0-4.79-.122-5.863c-.08-.713-.307-1.142-.676-1.257a21.287,21.287,0,0,0-5.588-.555" transform="translate(-42.747 -69.569)" fill="#2e2b28"/>
      <path id="Path_29532" data-name="Path 29532" d="M113.708,178.163h2.578q-.919,6.448-1.1,10.444a65.1,65.1,0,0,1-7.18.369q-2.461,0-5.158-.064-5.4-.122-8.228-.122-3.562,0-8.412.307v-1.534a2.07,2.07,0,0,0,.677-.369,5.712,5.712,0,0,0,1.9-1.23,3.407,3.407,0,0,0,.428-1.779q.372-13.323.369-18.793,0-13.568-.736-14.361a5.492,5.492,0,0,0-3.194-.8c-.367-.041-.816-.08-1.35-.124v-2.448q4.359.305,9.086.307,3.321,0,9.7-.246v2.448l-1.1.064a10.58,10.58,0,0,0-2.762.367,2.159,2.159,0,0,0-1.105,2.213l-.307,32.419q5.893.122,5.65.122,7.67,0,8.649-1.043a25.269,25.269,0,0,0,1.6-6.141" transform="translate(-23.387 -69.31)" fill="#2e2b28"/>
      <path id="Path_29533" data-name="Path 29533" d="M118.824,189.016v-1.534a7.271,7.271,0,0,0,2.856-1.751q.46-.7.462-16.423,0-15.967-.248-17.256a1.731,1.731,0,0,0-1.1-1.412,12.251,12.251,0,0,0-3.624-.431v-2.516q7.43.245,9.955.245,1.412,0,4.329-.06t11.084-.062q3.742,0,5.65.122a47.658,47.658,0,0,0-.979,8.842h-2.272a11.233,11.233,0,0,0-.429-4.419q-.736-1.108-8.044-1.1-2.394,0-5.774.06v4.36c0,.246-.02.839-.059,1.78-.041,1.062-.064,1.986-.064,2.763l-.06,5.648q2.208.184,4.114.184a24.662,24.662,0,0,0,6.17-.369q.645-.369.831-3.13c0-.246.02-.676.059-1.291h2.4q-.184,4.243-.184,6.448,0,.615.184,6.632h-2.578a9.76,9.76,0,0,1-.06-1.348q-.066-1.469-.124-1.958-.245-1.29-1.1-1.536a24.541,24.541,0,0,0-5.465-.367q-1.6,0-4.174.184c-.041.942-.06,1.8-.06,2.578q0,10.072.245,13.509,2.887.121,5.465.122,7.67,0,8.475-.739a24.48,24.48,0,0,0,1.6-5.956h2.394a56.572,56.572,0,0,0-.8,10.01q-3.5.183-5.4.184l-1.753-.064q-1.684-.059-3.344-.059l-10.257-.064q-3.375,0-8.288.184" transform="translate(-8.071 -69.295)" fill="#2e2b28"/>
      <path id="Path_29534" data-name="Path 29534" d="M150.608,189.019V186.5a10.828,10.828,0,0,0,4.3-.615q.676-.49.8-3.375.188-3.806.184-17.009,0-9.148-.152-11.606t-.676-2.853a15.194,15.194,0,0,0-4.514-.831v-2.458q3.988.188,7,.184,2.335,0,5.1-.184,17.5,22.29,24.439,29.967l-.06-16.947q0-9.4-.86-9.955a2.984,2.984,0,0,0-.92-.336q-.489-.095-2.7-.277c-.124,0-.367-.02-.738-.06v-2.458q3.375.245,6.2.245,2.27,0,7.67-.245v2.466q-3.745.062-4.481.979a11.645,11.645,0,0,0-.555,4.969l-.059,16.091q0,7,.181,17.806-2.335-.552-5.281-.979-21.244-24.869-26.158-31.87.062,2.825.06,12.161,0,15.412.676,16.455a8.323,8.323,0,0,0,3.563.738h.8v2.516q-3.375-.245-6.448-.245-3.132,0-7.368.245" transform="translate(7.483 -69.297)" fill="#2e2b28"/>
      <path id="Path_29535" data-name="Path 29535" d="M204.32,153.685l.064,14.614q0,1.6-.064,5.893-.059,6.391-.062,11.3a36.834,36.834,0,0,0,4.852.308q8.169,0,12.037-3.99,4.852-5.033,4.848-14.493,0-9.7-5.4-13.692-3.5-2.58-10.377-2.58-2.208,0-5.894.248Zm-11.608,35.368v-1.469a2.66,2.66,0,0,1,.553-.308,9.98,9.98,0,0,0,1.841-1.1,1.923,1.923,0,0,0,.431-1.044q.305-1.412.308-17.625a156.945,156.945,0,0,0-.369-15.9q-.248-.979-3.5-1.289c-.085,0-.452-.041-1.1-.122v-2.578q5.955.367,10.191.367,3.375,0,9.148-.184c1.306-.038,2.213-.06,2.7-.06a39.136,39.136,0,0,1,11.6,1.227,14.451,14.451,0,0,1,7.8,6.111,19.7,19.7,0,0,1,2.763,10.715,24.459,24.459,0,0,1-2.671,11.423,20.408,20.408,0,0,1-7.4,8.1,28.938,28.938,0,0,1-15.412,3.753q-2.272,0-6.754-.184-1.536-.062-2.58-.06-.736,0-2.394.122c-1.1.08-2.516.122-4.243.122Z" transform="translate(26.273 -69.333)" fill="#2e2b28"/>
      <path id="Path_29536" data-name="Path 29536" d="M245.78,157.881l-5.588,15.167q2.764.122,5.712.122,3.194,0,6.324-.122Zm.555-10.444h4.3L264.7,181.577q.676,1.413,1.469,3.264a2.285,2.285,0,0,0,1.169,1.227,11.973,11.973,0,0,0,3.066.49v2.516q-4.848-.122-8.78-.122-4.36,0-9.455.184v-2.578l.92-.064,1.9-.059c1.142-.041,1.718-.432,1.718-1.168a6.58,6.58,0,0,0-.55-2.025l-2.642-6.754-1.412-.064-7.246-.064q-1.784,0-6.018.126l-2.087,5.831a11.879,11.879,0,0,0-.736,2.58q0,1.412,4.733,1.594v2.58q-2.213-.122-6.2-.122-4.91,0-7.308.184v-2.7a7.455,7.455,0,0,0,3.473-.555,16.4,16.4,0,0,0,2.3-4.605Z" transform="translate(43.219 -69.416)" fill="#2e2b28"/>
      <path id="Path_29537" data-name="Path 29537" d="M293.471,178.163h2.578q-.919,6.448-1.1,10.444a65.147,65.147,0,0,1-7.18.369q-2.456,0-5.155-.064-5.4-.122-8.228-.122-3.563,0-8.414.307v-1.534a2.069,2.069,0,0,0,.677-.369,5.712,5.712,0,0,0,1.9-1.23,3.392,3.392,0,0,0,.427-1.779q.372-13.323.369-18.793,0-13.568-.736-14.361a5.487,5.487,0,0,0-3.194-.8c-.367-.041-.816-.08-1.35-.124v-2.448q4.359.305,9.086.307,3.321,0,9.7-.246v2.448l-1.1.064a10.58,10.58,0,0,0-2.762.367,2.159,2.159,0,0,0-1.105,2.213l-.307,32.419q5.893.122,5.65.122,7.67,0,8.649-1.043a25.273,25.273,0,0,0,1.6-6.141" transform="translate(60.381 -69.31)" fill="#2e2b28"/>
      <path id="Path_29538" data-name="Path 29538" d="M295.765,189.016v-1.534a7.27,7.27,0,0,0,2.856-1.751q.46-.7.462-16.423,0-15.967-.248-17.256a1.731,1.731,0,0,0-1.1-1.412,12.24,12.24,0,0,0-3.625-.431v-2.516q7.432.245,9.955.245,1.413,0,4.331-.06t11.084-.062q3.742,0,5.65.122a47.63,47.63,0,0,0-.979,8.842h-2.272a11.283,11.283,0,0,0-.428-4.419q-.736-1.108-8.044-1.1-2.394,0-5.774.06v4.36c0,.246-.02.839-.06,1.78-.041,1.062-.062,1.986-.062,2.763l-.06,5.648q2.208.184,4.112.184a24.675,24.675,0,0,0,6.172-.369q.641-.369.829-3.13c0-.246.02-.676.06-1.291h2.394q-.183,4.243-.184,6.448,0,.615.184,6.632h-2.578a9.759,9.759,0,0,1-.06-1.348q-.064-1.469-.124-1.958-.245-1.29-1.1-1.536a24.516,24.516,0,0,0-5.464-.367q-1.6,0-4.174.184c-.041.942-.06,1.8-.06,2.578q0,10.072.245,13.509,2.887.121,5.464.122,7.67,0,8.476-.739a24.644,24.644,0,0,0,1.6-5.956h2.394a56.429,56.429,0,0,0-.8,10.01q-3.5.183-5.4.184l-1.753-.064q-1.686-.059-3.344-.059l-10.271-.075q-3.375,0-8.287.184" transform="translate(74.378 -69.295)" fill="#2e2b28"/>
      <path id="Path_29539" data-name="Path 29539" d="M58.633,189.461H57.7l-.046-1.291a1.305,1.305,0,0,0-.3-.93,5.106,5.106,0,0,0-3.626-1.247,4.917,4.917,0,0,0-3.917,1.678,6.724,6.724,0,0,0-1.452,4.555,7.49,7.49,0,0,0,1.57,4.876,5.712,5.712,0,0,0,4.692,2.064,8.869,8.869,0,0,0,4.121-1.085l.25.251a7.832,7.832,0,0,0-.478,1.155,10.155,10.155,0,0,1-4.94,1.222,8.793,8.793,0,0,1-6.291-2.211,7.719,7.719,0,0,1-2.345-5.9,7.357,7.357,0,0,1,2.368-5.759,9.186,9.186,0,0,1,6.381-2.121,13.984,13.984,0,0,1,5.442,1.11A11.913,11.913,0,0,0,58.657,189Z" transform="translate(-41.731 -52.05)" fill="#2e2b28"/>
      <path id="Path_29540" data-name="Path 29540" d="M69.486,185.937a3.969,3.969,0,0,0-3.427,1.622,7.969,7.969,0,0,0-1.178,4.733,9.432,9.432,0,0,0,1.257,5.294,4.039,4.039,0,0,0,3.549,1.87q4.622,0,4.622-6.619a9.2,9.2,0,0,0-1.266-5.222,4.027,4.027,0,0,0-3.559-1.679m.408-1.247a8.021,8.021,0,0,1,5.534,1.821,7.27,7.27,0,0,1,2.314,5.757,8.419,8.419,0,0,1-2.246,6.165,8.286,8.286,0,0,1-12.176-11.2,8.35,8.35,0,0,1,6.573-2.539" transform="translate(-34.041 -52.062)" fill="#2e2b28"/>
      <path id="Path_29541" data-name="Path 29541" d="M88.956,200.364h-.7q-4.2-9.4-5.916-12.762v1.043l.135,8.388a8.885,8.885,0,0,0,.114,1.653.622.622,0,0,0,.454.431,5.442,5.442,0,0,0,1.224.114v.907q-.951-.049-2.7-.047-1.451,0-2.268.047v-.886a.884.884,0,0,1,.251-.021c.756-.033,1.195-.124,1.306-.284a3.264,3.264,0,0,0,.25-1.371q.09-1.723.091-5.1,0-4.328-.055-5.281t-.284-1.142a3.863,3.863,0,0,0-1.565-.225v-.93q1.7.07,2.991.069,1.088,0,2.2-.069.749,1.886,2.562,5.669,1.653,3.466,2.471,5.3,1.043-2.038,2.789-5.8,1.678-3.647,2.285-5.168c.953.047,1.94.069,2.97.069q.909,0,2-.069v.886c-1,.077-1.541.211-1.632.408a35.226,35.226,0,0,0-.206,5.645,43.166,43.166,0,0,0,.25,7.074c.106.179.635.279,1.588.294v.953q-1.43-.07-2.97-.069-1.836,0-3.74.069v-.93h.331c.653,0,1.051-.093,1.2-.274a7.507,7.507,0,0,0,.25-2.877c0,.015,0-.364.021-1.142v-7.017q-.343.681-.726,1.495l-3.491,7.618q-.5,1.088-1.02,2.268c-.077.194-.225.55-.454,1.062" transform="translate(-25.721 -51.959)" fill="#2e2b28"/>
      <path id="Path_29542" data-name="Path 29542" d="M109.321,200.364h-.7q-4.194-9.4-5.916-12.762v1.043l.137,8.388a9.075,9.075,0,0,0,.113,1.653.625.625,0,0,0,.454.431,5.435,5.435,0,0,0,1.224.114v.907q-.955-.049-2.7-.047c-.966,0-1.723.015-2.267.047v-.886a.873.873,0,0,1,.25-.021c.756-.033,1.195-.124,1.306-.284a3.263,3.263,0,0,0,.251-1.371q.088-1.723.09-5.1,0-4.328-.054-5.281t-.286-1.142a3.854,3.854,0,0,0-1.563-.225v-.93q1.7.07,2.991.069,1.088,0,2.2-.069.749,1.886,2.564,5.669,1.651,3.466,2.471,5.3,1.043-2.038,2.789-5.8,1.678-3.647,2.285-5.168c.953.047,1.94.069,2.97.069q.909,0,2-.069v.886c-1,.077-1.542.211-1.632.408a34.909,34.909,0,0,0-.207,5.645,43.178,43.178,0,0,0,.25,7.074c.108.179.636.279,1.589.294v.953q-1.43-.07-2.97-.069-1.836,0-3.742.069v-.93h.318c.653,0,1.049-.093,1.2-.274a7.507,7.507,0,0,0,.25-2.877c0,.015,0-.364.021-1.142v-7.017q-.34.681-.725,1.495l-3.492,7.618q-.5,1.088-1.02,2.268c-.077.194-.225.55-.454,1.062" transform="translate(-16.232 -51.959)" fill="#2e2b28"/>
      <path id="Path_29543" data-name="Path 29543" d="M120.044,185.86v-.93c1.1.06,2.141.09,3.1.09q.951,0,3.6-.067v.907a4.4,4.4,0,0,0-1.191.135.641.641,0,0,0-.4.5,58.125,58.125,0,0,0-.2,7.027q0,1.563.046,2a3.855,3.855,0,0,0,.566,1.882,3.732,3.732,0,0,0,3.264,1.338q2.968,0,3.559-2.154a14.268,14.268,0,0,0,.361-3.491q-.02,1.678-.021-3.492a9.379,9.379,0,0,0-.282-3.445,3.563,3.563,0,0,0-1.6-.3v-.907c1.315.047,2.2.067,2.653.067q1.043,0,2.285-.09v.93c-.785.046-1.261.173-1.428.385a2.887,2.887,0,0,0-.2,1.338q-.046,1.11-.137,7.18a5.978,5.978,0,0,1-1.271,4.124,6.48,6.48,0,0,1-4.9,1.7,7.018,7.018,0,0,1-4.733-1.451,4.9,4.9,0,0,1-1.317-3.877q0-.857.046-7.071a4.17,4.17,0,0,0-.224-1.958q-.253-.305-1.589-.374" transform="translate(-6.736 -51.944)" fill="#2e2b28"/>
      <path id="Path_29544" data-name="Path 29544" d="M137.4,200.173v-.93a3.965,3.965,0,0,0,1.585-.227q.253-.18.3-1.247.069-1.405.067-6.28,0-3.38-.057-4.285c-.038-.605-.119-.955-.25-1.053a5.521,5.521,0,0,0-1.665-.307v-.907c.979.044,1.842.067,2.585.067q.86,0,1.882-.067,6.459,8.231,9.021,11.063l-.024-6.257a9.386,9.386,0,0,0-.315-3.673,1.191,1.191,0,0,0-.341-.124q-.181-.032-1-.1c-.046,0-.135-.008-.271-.025v-.9q1.247.09,2.285.09.84,0,2.835-.09v.9q-1.385.024-1.656.364a4.316,4.316,0,0,0-.2,1.836l-.021,5.94q0,2.587.069,6.575c-.576-.139-1.226-.258-1.95-.364q-7.843-9.178-9.656-11.766.02,1.046.021,4.491a32.222,32.222,0,0,0,.25,6.072,3.011,3.011,0,0,0,1.306.274h.3v.93c-.829-.06-1.632-.09-2.381-.09s-1.678.029-2.719.09" transform="translate(1.345 -51.949)" fill="#2e2b28"/>
      <path id="Path_29545" data-name="Path 29545" d="M155.714,200.181v-.907l.224-.021a11.183,11.183,0,0,0,1.235-.163c.131-.037.225-.178.284-.418q.137-.615.137-8.024a26.6,26.6,0,0,0-.163-4.4c-.106-.2-.527-.318-1.268-.366a4.011,4.011,0,0,1-.431-.021V184.9q1.632.134,4.08.135c1.072,0,2.012-.029,2.812-.09v.907c-1.074.075-1.645.186-1.712.339a4.466,4.466,0,0,0-.124,1.224q-.065,4.15-.069,5.01,0,4.308.036,5.294a2.965,2.965,0,0,0,.194,1.224c.106.163.653.269,1.653.326v.907l-3.784-.069c-.725,0-1.762.021-3.1.069" transform="translate(9.89 -51.957)" fill="#2e2b28"/>
      <path id="Path_29546" data-name="Path 29546" d="M170.62,200.188v-.907a3.59,3.59,0,0,0,1.7-.307,8.074,8.074,0,0,0,.25-2.459q.044-2.152.047-9.475v-.679h-.653a11.437,11.437,0,0,0-3.151.2c-.194.137-.31.612-.339,1.428l-.024.636h-.929v-.568q0-1.317-.163-3.174,3.127.248,6.639.25,3.628,0,7.073-.181a20.687,20.687,0,0,0-.294,3.673h-.906q-.095-1.43-.147-1.7a.527.527,0,0,0-.308-.385,21.908,21.908,0,0,0-3.651-.181v.747l-.044,9.542q0,2.132.271,2.358a.709.709,0,0,0,.362.147c.152.021.568.065,1.247.124v.907q-2.177-.09-3.376-.09-1.157,0-3.607.09" transform="translate(15.316 -51.963)" fill="#2e2b28"/>
      <path id="Path_29547" data-name="Path 29547" d="M196,184.974h1.722v.5a29.289,29.289,0,0,0-2.378,3.626q-.387.653-1.2,1.994a19.885,19.885,0,0,0-1.133,2.006,3.507,3.507,0,0,0-.181,1.281,15.1,15.1,0,0,0,.318,4.649,3.558,3.558,0,0,0,1.678.2v1q-2.084-.09-3.4-.09-1.222,0-3.514.09v-.9a5.953,5.953,0,0,0,1.609-.225c.163-.093.273-.364.318-.816s.06-1.539.044-3.264a4.519,4.519,0,0,0-.078-1.054,4.662,4.662,0,0,0-.465-.943,41.285,41.285,0,0,0-3.876-5.938,2.105,2.105,0,0,0-1.632-.77,2.44,2.44,0,0,0-.364.023v-.86a13.463,13.463,0,0,0,3.719-.682,4.6,4.6,0,0,1,1.927,1.87,60.981,60.981,0,0,1,3.15,5.679q.77-1.612,1.813-3.6,1.384-2.65,1.927-3.762" transform="translate(22.823 -52.004)" fill="#2e2b28"/>
      <path id="Path_29548" data-name="Path 29548" d="M223.911,189.463h-.93l-.046-1.291a1.305,1.305,0,0,0-.3-.93,5.106,5.106,0,0,0-3.626-1.247,4.917,4.917,0,0,0-3.917,1.678,6.722,6.722,0,0,0-1.452,4.555,7.49,7.49,0,0,0,1.567,4.876,5.712,5.712,0,0,0,4.692,2.064,8.87,8.87,0,0,0,4.127-1.089l.25.251a7.835,7.835,0,0,0-.478,1.155,10.155,10.155,0,0,1-4.94,1.222,8.791,8.791,0,0,1-6.291-2.211,7.717,7.717,0,0,1-2.345-5.9,7.356,7.356,0,0,1,2.368-5.759,9.187,9.187,0,0,1,6.381-2.121,13.982,13.982,0,0,1,5.442,1.11,11.913,11.913,0,0,0-.478,3.174Z" transform="translate(35.288 -52.051)" fill="#2e2b28"/>
      <path id="Path_29549" data-name="Path 29549" d="M234.767,185.94a3.972,3.972,0,0,0-3.427,1.622,7.971,7.971,0,0,0-1.177,4.733,9.432,9.432,0,0,0,1.257,5.294,4.037,4.037,0,0,0,3.549,1.87q4.62,0,4.622-6.619a9.188,9.188,0,0,0-1.268-5.222,4.024,4.024,0,0,0-3.558-1.679m.406-1.247a8.024,8.024,0,0,1,5.531,1.815,7.273,7.273,0,0,1,2.312,5.757,8.417,8.417,0,0,1-2.244,6.165,8.286,8.286,0,0,1-12.176-11.2,8.35,8.35,0,0,1,6.572-2.539" transform="translate(42.975 -52.065)" fill="#2e2b28"/>
      <path id="Path_29550" data-name="Path 29550" d="M255.427,196.17h.953q-.341,2.381-.406,3.853a23.737,23.737,0,0,1-2.654.137q-.909,0-1.906-.024-1.994-.044-3.037-.046-1.315,0-3.1.114v-.565a.73.73,0,0,0,.25-.139,2.081,2.081,0,0,0,.7-.454,1.271,1.271,0,0,0,.163-.653q.134-4.915.136-6.937a22.126,22.126,0,0,0-.274-5.3,2.012,2.012,0,0,0-1.177-.294c-.137-.016-.3-.031-.49-.047V184.9q1.607.114,3.352.114c.816,0,2.009-.031,3.59-.091v.9l-.41.024a3.916,3.916,0,0,0-1.018.135.8.8,0,0,0-.41.816l-.114,11.967,2.087.046a6.66,6.66,0,0,0,3.194-.385,9.3,9.3,0,0,0,.589-2.267" transform="translate(51.306 -51.957)" fill="#2e2b28"/>
      <path id="Path_29551" data-name="Path 29551" d="M270.132,196.17h.953q-.341,2.381-.406,3.853a23.712,23.712,0,0,1-2.653.137q-.909,0-1.906-.024-1.994-.044-3.037-.046-1.315,0-3.1.114v-.565a.718.718,0,0,0,.25-.139,2.069,2.069,0,0,0,.7-.454,1.268,1.268,0,0,0,.163-.653q.134-4.915.137-6.937a21.975,21.975,0,0,0-.276-5.3,2.012,2.012,0,0,0-1.177-.294c-.137-.016-.3-.031-.49-.047V184.9q1.607.114,3.352.114c.816,0,2.009-.031,3.59-.091v.9l-.41.024a3.916,3.916,0,0,0-1.018.135.8.8,0,0,0-.41.816l-.114,11.967,2.087.046a6.671,6.671,0,0,0,3.2-.385,9.414,9.414,0,0,0,.587-2.267" transform="translate(58.159 -51.957)" fill="#2e2b28"/>
      <path id="Path_29552" data-name="Path 29552" d="M274.6,200.176v-.568a2.644,2.644,0,0,0,1.054-.653,44.429,44.429,0,0,0,.171-6.062q0-5.9-.091-6.364a.653.653,0,0,0-.409-.522,4.518,4.518,0,0,0-1.335-.163v-.93q2.74.09,3.669.09c.348,0,.88,0,1.6-.023s2.082-.021,4.091-.021c.922,0,1.619.016,2.084.046a17.646,17.646,0,0,0-.361,3.264h-.841a4.145,4.145,0,0,0-.163-1.632q-.268-.406-2.97-.406c-.589,0-1.306,0-2.121.021v1.611c0,.09,0,.31-.023.653-.013.393-.021.733-.021,1.02l-.028,2.1c.547.047,1.051.067,1.521.067a9.193,9.193,0,0,0,2.285-.135c.163-.09.261-.475.307-1.157,0-.09.008-.25.021-.475h.886c-.047,1.043-.067,1.836-.067,2.381q0,.225.067,2.448h-.953a4,4,0,0,1-.021-.49c-.016-.366-.029-.605-.046-.728-.06-.313-.2-.5-.408-.565a8.96,8.96,0,0,0-2.017-.135c-.395,0-.907.021-1.542.067-.016.348-.024.666-.024.95,0,2.479.034,4.143.093,4.987q1.067.044,2.017.046a8.523,8.523,0,0,0,3.128-.271,8.966,8.966,0,0,0,.587-2.2h.886a21.1,21.1,0,0,0-.294,3.695q-1.3.07-2,.069l-.653-.021c-.414-.016-.829-.024-1.234-.024l-3.788-.021c-.829,0-1.852.021-3.06.069" transform="translate(65.005 -51.952)" fill="#2e2b28"/>
      <path id="Path_29553" data-name="Path 29553" d="M298.532,195.051V194.1c1.089.047,2.071.067,2.937.067,1.043,0,2.208,0,3.492-.021v.7l-.179.069a5.577,5.577,0,0,0-.635.25.23.23,0,0,0-.135.2,12.339,12.339,0,0,0-.046,1.469q0,.7.09,2.492a16.761,16.761,0,0,1-6.438,1.407,8.837,8.837,0,0,1-6.279-2.2,8.385,8.385,0,0,1-.067-11.587,9.707,9.707,0,0,1,6.914-2.246,16.537,16.537,0,0,1,5.78,1.067,15.709,15.709,0,0,0-.542,3.649h-.886c-.029-.86-.06-1.392-.09-1.6a.849.849,0,0,0-.228-.49,6.312,6.312,0,0,0-8.264.326,6.709,6.709,0,0,0-1.55,4.679,7.881,7.881,0,0,0,1.6,5.137,5.162,5.162,0,0,0,4.2,1.958,4.753,4.753,0,0,0,2.516-.545c.106-.06.163-.4.163-1.018,0-1.18-.016-1.9-.046-2.166s-.114-.418-.251-.465a8,8,0,0,0-2.063-.2" transform="translate(71.989 -52.063)" fill="#2e2b28"/>
      <path id="Path_29554" data-name="Path 29554" d="M307.339,200.176v-.568a2.643,2.643,0,0,0,1.054-.653,44.893,44.893,0,0,0,.163-6.062q0-5.9-.09-6.364a.652.652,0,0,0-.41-.522,4.528,4.528,0,0,0-1.335-.163v-.93q2.74.09,3.67.09c.348,0,.88,0,1.6-.023s2.082-.021,4.091-.021q1.384,0,2.084.046a17.531,17.531,0,0,0-.361,3.264h-.839a4.149,4.149,0,0,0-.163-1.632q-.268-.406-2.97-.406c-.589,0-1.3,0-2.121.021v1.611c0,.09,0,.31-.023.653q-.023.589-.021,1.02l-.025,2.084c.545.047,1.051.067,1.521.067a9.192,9.192,0,0,0,2.285-.135c.163-.09.261-.475.307-1.157,0-.09.008-.25.021-.475h.886q-.07,1.563-.069,2.381,0,.224.069,2.448h-.953a3.653,3.653,0,0,1-.023-.49c-.016-.366-.029-.605-.047-.728-.059-.313-.2-.5-.406-.565a8.959,8.959,0,0,0-2.017-.135c-.4,0-.907.021-1.542.067-.016.348-.025.666-.025.95q0,3.719.093,4.987,1.067.044,2.017.046a8.509,8.509,0,0,0,3.127-.271,8.85,8.85,0,0,0,.589-2.2h.886a21.082,21.082,0,0,0-.294,3.695q-1.3.07-2,.069l-.653-.021c-.415-.016-.829-.025-1.234-.025l-3.788-.021q-1.246,0-3.06.069" transform="translate(80.257 -51.952)" fill="#2e2b28"/>
      <rect id="Rectangle_2475" data-name="Rectangle 2475" width="399.985" height="148.672" transform="translate(0 0.007)" fill="none"/>
    </g>
  </g>
</svg>
